<?xml version="1.0" encoding="UTF-8" standalone="no"?>
<svg
   width="700pt"
   height="700pt"
   version="1.1"
   viewBox="0 0 700 700"
   id="svg150"
   sodipodi:docname="noun-contact-2225647.svg"
   inkscape:version="1.2.2 (b0a8486541, 2022-12-01)"
   xmlns:inkscape="http://www.inkscape.org/namespaces/inkscape"
   xmlns:sodipodi="http://sodipodi.sourceforge.net/DTD/sodipodi-0.dtd"
   xmlns="http://www.w3.org/2000/svg"
   xmlns:svg="http://www.w3.org/2000/svg">
  <sodipodi:namedview
     id="namedview152"
     pagecolor="#505050"
     bordercolor="#ffffff"
     borderopacity="1"
     inkscape:showpageshadow="0"
     inkscape:pageopacity="0"
     inkscape:pagecheckerboard="1"
     inkscape:deskcolor="#505050"
     inkscape:document-units="pt"
     showgrid="false"
     inkscape:zoom="1.0167857"
     inkscape:cx="466.66667"
     inkscape:cy="387.98736"
     inkscape:window-width="1871"
     inkscape:window-height="1056"
     inkscape:window-x="49"
     inkscape:window-y="0"
     inkscape:window-maximized="1"
     inkscape:current-layer="g148" />
  <defs
     id="defs68">
    <symbol
       id="v"
       overflow="visible">
      <path
         d="m3.6562-0.21875c-0.1875 0.09375-0.38672 0.16797-0.59375 0.21875-0.19922 0.050781-0.40625 0.078125-0.625 0.078125-0.66797 0-1.1992-0.17969-1.5938-0.54688-0.38672-0.375-0.57812-0.87891-0.57812-1.5156 0-0.64453 0.19141-1.1484 0.57812-1.5156 0.39453-0.375 0.92578-0.5625 1.5938-0.5625 0.21875 0 0.42578 0.027344 0.625 0.078125 0.20703 0.054687 0.40625 0.125 0.59375 0.21875v0.82812c-0.1875-0.125-0.375-0.21875-0.5625-0.28125-0.17969-0.0625-0.37109-0.09375-0.57812-0.09375-0.36719 0-0.65625 0.12109-0.875 0.35938-0.21094 0.23047-0.3125 0.55469-0.3125 0.96875 0 0.40625 0.10156 0.73047 0.3125 0.96875 0.21875 0.23047 0.50781 0.34375 0.875 0.34375 0.20703 0 0.39844-0.023437 0.57812-0.078125 0.1875-0.0625 0.375-0.16016 0.5625-0.29688z"
         id="path2" />
    </symbol>
    <symbol
       id="d"
       overflow="visible">
      <path
         d="m2.6875-2.1719c-0.085938-0.039063-0.16797-0.070313-0.25-0.09375-0.085938-0.019531-0.16797-0.03125-0.25-0.03125-0.25 0-0.44531 0.085937-0.57812 0.25-0.125 0.15625-0.1875 0.38281-0.1875 0.67188v1.375h-0.96875v-2.9844h0.96875v0.48438c0.11328-0.19531 0.25-0.33594 0.40625-0.42188 0.16406-0.09375 0.35938-0.14062 0.57812-0.14062h0.10938c0.039063 0 0.09375 0.007812 0.15625 0.015625z"
         id="path5" />
    </symbol>
    <symbol
       id="a"
       overflow="visible">
      <path
         d="m3.4375-1.5v0.26562h-2.2344c0.03125 0.23047 0.11328 0.40234 0.25 0.51562 0.13281 0.10547 0.32812 0.15625 0.57812 0.15625 0.20703 0 0.41406-0.023438 0.625-0.078125 0.20703-0.0625 0.42188-0.15625 0.64062-0.28125v0.73438c-0.21875 0.09375-0.44531 0.16406-0.67188 0.20312-0.23047 0.039062-0.45312 0.0625-0.67188 0.0625-0.54297 0-0.96484-0.13281-1.2656-0.40625-0.30469-0.28125-0.45312-0.67188-0.45312-1.1719 0-0.47656 0.14453-0.85938 0.4375-1.1406 0.30078-0.28125 0.70703-0.42188 1.2188-0.42188 0.46875 0 0.84375 0.14062 1.125 0.42188s0.42188 0.66406 0.42188 1.1406zm-0.96875-0.32812c0-0.17578-0.058594-0.31641-0.17188-0.42188-0.10547-0.11328-0.24219-0.17188-0.40625-0.17188-0.1875 0-0.33984 0.054687-0.45312 0.15625-0.11719 0.10547-0.1875 0.25-0.21875 0.4375z"
         id="path8" />
    </symbol>
    <symbol
       id="e"
       overflow="visible">
      <path
         d="m1.7969-1.3438c-0.19922 0-0.35156 0.039062-0.45312 0.10938-0.09375 0.0625-0.14062 0.16406-0.14062 0.29688 0 0.11719 0.035156 0.21094 0.10938 0.28125 0.082031 0.0625 0.19531 0.09375 0.34375 0.09375 0.17578 0 0.32812-0.0625 0.45312-0.1875s0.1875-0.28516 0.1875-0.48438v-0.10938zm1.4688-0.35938v1.7031h-0.96875v-0.4375c-0.125 0.17969-0.27344 0.30859-0.4375 0.39062-0.15625 0.082031-0.35156 0.125-0.57812 0.125-0.3125 0-0.57031-0.085938-0.76562-0.26562-0.1875-0.1875-0.28125-0.42188-0.28125-0.70312 0-0.35156 0.11719-0.61328 0.35938-0.78125 0.23828-0.16406 0.61719-0.25 1.1406-0.25h0.5625v-0.0625c0-0.15625-0.0625-0.26562-0.1875-0.32812-0.11719-0.070312-0.29688-0.10938-0.54688-0.10938-0.21094 0-0.40234 0.023437-0.57812 0.0625-0.17969 0.042969-0.33984 0.10156-0.48438 0.17188v-0.71875c0.19531-0.050781 0.39844-0.085938 0.60938-0.10938 0.20703-0.03125 0.41406-0.046875 0.625-0.046875 0.53906 0 0.92969 0.10938 1.1719 0.32812 0.23828 0.21094 0.35938 0.55469 0.35938 1.0312z"
         id="path11" />
    </symbol>
    <symbol
       id="c"
       overflow="visible">
      <path
         d="m1.5-3.8438v0.85938h0.98438v0.67188h-0.98438v1.2812c0 0.13672 0.023438 0.23047 0.078125 0.28125 0.0625 0.042969 0.17578 0.0625 0.34375 0.0625h0.48438v0.6875h-0.8125c-0.38672 0-0.65625-0.078125-0.8125-0.23438s-0.23438-0.42188-0.23438-0.79688v-1.2812h-0.46875v-0.67188h0.46875v-0.85938z"
         id="path14" />
    </symbol>
    <symbol
       id="k"
       overflow="visible">
      <path
         d="m2.5-2.5469v-1.6094h0.95312v4.1562h-0.95312v-0.4375c-0.13672 0.17969-0.28125 0.30859-0.4375 0.39062-0.15625 0.082031-0.33984 0.125-0.54688 0.125-0.375 0-0.68359-0.14453-0.92188-0.4375-0.23047-0.28906-0.34375-0.67188-0.34375-1.1406 0-0.45703 0.11328-0.83203 0.34375-1.125 0.23828-0.28906 0.54688-0.4375 0.92188-0.4375 0.19531 0 0.375 0.042969 0.53125 0.125 0.16406 0.085938 0.31641 0.21484 0.45312 0.39062zm-0.64062 1.9375c0.20703 0 0.36328-0.070313 0.46875-0.21875 0.11328-0.15625 0.17188-0.37891 0.17188-0.67188 0-0.28125-0.058594-0.49219-0.17188-0.64062-0.10547-0.15625-0.26172-0.23438-0.46875-0.23438-0.19922 0-0.35547 0.078125-0.46875 0.23438-0.10547 0.14844-0.15625 0.35938-0.15625 0.64062 0 0.29297 0.050781 0.51562 0.15625 0.67188 0.11328 0.14844 0.26953 0.21875 0.46875 0.21875z"
         id="path17" />
    </symbol>
    <symbol
       id="j"
       overflow="visible">
      <path
         d="m2.0469-0.60938c0.20703 0 0.36328-0.070313 0.46875-0.21875 0.11328-0.15625 0.17188-0.37891 0.17188-0.67188 0-0.28125-0.058594-0.49219-0.17188-0.64062-0.10547-0.15625-0.26172-0.23438-0.46875-0.23438-0.19922 0-0.35547 0.078125-0.46875 0.23438-0.10547 0.14844-0.15625 0.35938-0.15625 0.64062 0 0.29297 0.050781 0.51562 0.15625 0.67188 0.11328 0.14844 0.26953 0.21875 0.46875 0.21875zm-0.625-1.9375c0.125-0.17578 0.26562-0.30469 0.42188-0.39062 0.16406-0.082031 0.35156-0.125 0.5625-0.125 0.36328 0 0.66406 0.14844 0.90625 0.4375 0.23828 0.29297 0.35938 0.66797 0.35938 1.125 0 0.46875-0.12109 0.85156-0.35938 1.1406-0.24219 0.29297-0.54297 0.4375-0.90625 0.4375-0.21094 0-0.39844-0.042969-0.5625-0.125-0.15625-0.082031-0.29688-0.21094-0.42188-0.39062v0.4375h-0.96875v-4.1562h0.96875z"
         id="path20" />
    </symbol>
    <symbol
       id="i"
       overflow="visible">
      <path
         d="m0.0625-2.9844h0.95312l0.8125 2.0156 0.6875-2.0156h0.95312l-1.2656 3.2656c-0.125 0.33203-0.27344 0.56641-0.4375 0.70312-0.16797 0.13281-0.39062 0.20312-0.67188 0.20312h-0.54688v-0.64062h0.29688c0.16406 0 0.28516-0.027344 0.35938-0.078125 0.070313-0.054688 0.12891-0.14062 0.17188-0.26562l0.03125-0.09375z"
         id="path23" />
    </symbol>
    <symbol
       id="h"
       overflow="visible">
      <path
         d="m0.5-3.9844h1.3125l0.90625 2.125 0.90625-2.125h1.3125v3.9844h-0.96875v-2.9219l-0.92188 2.1562h-0.65625l-0.90625-2.1562v2.9219h-0.98438z"
         id="path26" />
    </symbol>
    <symbol
       id="u"
       overflow="visible">
      <path
         d="m1.2188-1.5312-1.0781-1.4531h1l0.625 0.875 0.60938-0.875h1.0156l-1.0781 1.4531 1.125 1.5312h-1l-0.67188-0.9375-0.67188 0.9375h-1.0156z"
         id="path29" />
    </symbol>
    <symbol
       id="t"
       overflow="visible">
      <path
         d="m0.45312-2.9844h0.96875v2.9844h-0.96875zm0-1.1719h0.96875v0.78125h-0.96875z"
         id="path32" />
    </symbol>
    <symbol
       id="g"
       overflow="visible">
      <path
         d="m2.875-2.8906v0.76562c-0.125-0.082031-0.25781-0.14453-0.39062-0.1875-0.13672-0.039062-0.27344-0.0625-0.40625-0.0625-0.27344 0-0.48047 0.078125-0.625 0.23438-0.14844 0.15625-0.21875 0.37109-0.21875 0.64062 0 0.28125 0.070313 0.5 0.21875 0.65625 0.14453 0.15625 0.35156 0.23438 0.625 0.23438 0.14453 0 0.28516-0.019531 0.42188-0.0625 0.13281-0.039063 0.25781-0.10938 0.375-0.20312v0.78125c-0.14844 0.0625-0.29688 0.10156-0.45312 0.125-0.15625 0.03125-0.3125 0.046875-0.46875 0.046875-0.54297 0-0.96484-0.13281-1.2656-0.40625-0.30469-0.28125-0.45312-0.67188-0.45312-1.1719 0-0.48828 0.14844-0.86719 0.45312-1.1406 0.30078-0.28125 0.72266-0.42188 1.2656-0.42188 0.15625 0 0.3125 0.015625 0.46875 0.046875 0.15625 0.023437 0.30469 0.0625 0.45312 0.125z"
         id="path35" />
    </symbol>
    <symbol
       id="b"
       overflow="visible">
      <path
         d="m1.875-2.375c-0.21094 0-0.37109 0.078125-0.48438 0.23438-0.10547 0.14844-0.15625 0.35938-0.15625 0.64062 0 0.29297 0.050781 0.51562 0.15625 0.67188 0.11328 0.14844 0.27344 0.21875 0.48438 0.21875 0.20703 0 0.36719-0.070313 0.48438-0.21875 0.11328-0.15625 0.17188-0.37891 0.17188-0.67188 0-0.28125-0.058594-0.49219-0.17188-0.64062-0.11719-0.15625-0.27734-0.23438-0.48438-0.23438zm0-0.6875c0.51953 0 0.92188 0.14062 1.2031 0.42188 0.28906 0.27344 0.4375 0.65234 0.4375 1.1406 0 0.5-0.14844 0.89062-0.4375 1.1719-0.28125 0.27344-0.68359 0.40625-1.2031 0.40625-0.51172 0-0.91406-0.13281-1.2031-0.40625-0.29297-0.28125-0.4375-0.67188-0.4375-1.1719 0-0.48828 0.14453-0.86719 0.4375-1.1406 0.28906-0.28125 0.69141-0.42188 1.2031-0.42188z"
         id="path38" />
    </symbol>
    <symbol
       id="f"
       overflow="visible">
      <path
         d="m3.4688-1.8281v1.8281h-0.96875v-1.3906c0-0.25781-0.007812-0.4375-0.015625-0.53125-0.011719-0.10156-0.03125-0.17578-0.0625-0.21875-0.03125-0.0625-0.085937-0.10938-0.15625-0.14062-0.0625-0.039062-0.13281-0.0625-0.20312-0.0625-0.21094 0-0.37109 0.078125-0.48438 0.23438-0.10547 0.15625-0.15625 0.37109-0.15625 0.64062v1.4688h-0.96875v-2.9844h0.96875v0.4375c0.13281-0.17578 0.28516-0.30469 0.45312-0.39062 0.16406-0.082031 0.34375-0.125 0.53125-0.125 0.34375 0 0.60156 0.10938 0.78125 0.32812 0.1875 0.21094 0.28125 0.51172 0.28125 0.90625z"
         id="path41" />
    </symbol>
    <symbol
       id="s"
       overflow="visible">
      <path
         d="m2.7969-2.8906v0.71875c-0.21094-0.082031-0.40625-0.14453-0.59375-0.1875-0.1875-0.039063-0.37109-0.0625-0.54688-0.0625-0.17969 0-0.3125 0.023437-0.40625 0.0625-0.085938 0.042969-0.125 0.10938-0.125 0.20312 0 0.085938 0.03125 0.14844 0.09375 0.1875 0.070312 0.042969 0.19531 0.074219 0.375 0.09375l0.15625 0.015625c0.48828 0.0625 0.81641 0.16797 0.98438 0.3125 0.17578 0.13672 0.26562 0.35938 0.26562 0.67188s-0.12109 0.55469-0.35938 0.71875c-0.23047 0.15625-0.57812 0.23438-1.0469 0.23438-0.19922 0-0.40625-0.015625-0.625-0.046875-0.21094-0.03125-0.42188-0.078125-0.64062-0.14062v-0.71875c0.1875 0.085937 0.37891 0.15234 0.57812 0.20312 0.20703 0.042969 0.41406 0.0625 0.625 0.0625 0.1875 0 0.32812-0.023438 0.42188-0.078125 0.09375-0.050781 0.14062-0.125 0.14062-0.21875s-0.039062-0.16016-0.10938-0.20312c-0.0625-0.039062-0.1875-0.070312-0.375-0.09375l-0.17188-0.015625c-0.42969-0.050781-0.73047-0.14844-0.90625-0.29688-0.16797-0.14453-0.25-0.36328-0.25-0.65625 0-0.32031 0.10938-0.55469 0.32812-0.70312 0.21875-0.15625 0.55078-0.23438 1-0.23438 0.17578 0 0.35938 0.015625 0.54688 0.046875 0.19531 0.023437 0.41016 0.0625 0.64062 0.125z"
         id="path44" />
    </symbol>
    <symbol
       id="r"
       overflow="visible">
      <path
         d="m2.4219-4.1562v0.625h-0.51562c-0.13672 0-0.23438 0.027344-0.29688 0.078125-0.054687 0.054687-0.078125 0.13672-0.078125 0.25v0.21875h0.82812v0.67188h-0.82812v2.3125h-0.95312v-2.3125h-0.46875v-0.67188h0.46875v-0.21875c0-0.32031 0.085937-0.5625 0.26562-0.71875 0.1875-0.15625 0.47266-0.23438 0.85938-0.23438z"
         id="path47" />
    </symbol>
    <symbol
       id="q"
       overflow="visible">
      <path
         d="m3.2344-2.5c0.11328-0.17578 0.25391-0.3125 0.42188-0.40625 0.16406-0.10156 0.35156-0.15625 0.5625-0.15625 0.33203 0 0.58594 0.10938 0.76562 0.32812 0.1875 0.21094 0.28125 0.51172 0.28125 0.90625v1.8281h-0.96875v-1.5625c0.007813-0.019531 0.015625-0.039062 0.015625-0.0625v-0.10938c0-0.21875-0.03125-0.375-0.09375-0.46875s-0.16406-0.14062-0.29688-0.14062c-0.1875 0-0.33594 0.078125-0.4375 0.23438-0.09375 0.14844-0.14062 0.35938-0.14062 0.64062v1.4688h-0.96875v-1.5625c0-0.33203-0.03125-0.54688-0.09375-0.64062-0.054688-0.09375-0.15234-0.14062-0.29688-0.14062-0.17969 0-0.32031 0.078125-0.42188 0.23438-0.09375 0.14844-0.14062 0.35938-0.14062 0.64062v1.4688h-0.96875v-2.9844h0.96875v0.4375c0.11328-0.17578 0.24219-0.30469 0.39062-0.39062 0.15625-0.082031 0.32812-0.125 0.51562-0.125 0.20703 0 0.39062 0.054688 0.54688 0.15625 0.15625 0.09375 0.27344 0.23047 0.35938 0.40625z"
         id="path50" />
    </symbol>
    <symbol
       id="p"
       overflow="visible">
      <path
         d="m3.4688-1.8281v1.8281h-0.96875v-1.3906c0-0.25781-0.007812-0.4375-0.015625-0.53125-0.011719-0.10156-0.03125-0.17578-0.0625-0.21875-0.03125-0.0625-0.085937-0.10938-0.15625-0.14062-0.0625-0.039062-0.13281-0.0625-0.20312-0.0625-0.21094 0-0.37109 0.078125-0.48438 0.23438-0.10547 0.15625-0.15625 0.37109-0.15625 0.64062v1.4688h-0.96875v-4.1562h0.96875v1.6094c0.13281-0.17578 0.28516-0.30469 0.45312-0.39062 0.16406-0.082031 0.34375-0.125 0.53125-0.125 0.34375 0 0.60156 0.10938 0.78125 0.32812 0.1875 0.21094 0.28125 0.51172 0.28125 0.90625z"
         id="path53" />
    </symbol>
    <symbol
       id="o"
       overflow="visible">
      <path
         d="m0.5-3.9844h1.1562l1.4375 2.7344v-2.7344h0.98438v3.9844h-1.1562l-1.4375-2.7344v2.7344h-0.98438z"
         id="path56" />
    </symbol>
    <symbol
       id="n"
       overflow="visible">
      <path
         d="m0.42188-1.1719v-1.8125h0.96875v0.29688 0.60938 0.48438c0 0.24219 0.003906 0.41797 0.015625 0.53125 0.007812 0.10547 0.03125 0.17969 0.0625 0.21875 0.039062 0.0625 0.09375 0.11719 0.15625 0.15625 0.0625 0.03125 0.13281 0.046875 0.21875 0.046875 0.19531 0 0.35156-0.078125 0.46875-0.23438 0.11328-0.15625 0.17188-0.36719 0.17188-0.64062v-1.4688h0.95312v2.9844h-0.95312v-0.4375c-0.14844 0.17969-0.30469 0.30859-0.46875 0.39062-0.15625 0.082031-0.33594 0.125-0.53125 0.125-0.34375 0-0.60938-0.10156-0.79688-0.3125-0.17969-0.21875-0.26562-0.53125-0.26562-0.9375z"
         id="path59" />
    </symbol>
    <symbol
       id="m"
       overflow="visible">
      <path
         d="m0.5-3.9844h1.7031c0.50781 0 0.89844 0.11719 1.1719 0.34375 0.26953 0.21875 0.40625 0.53906 0.40625 0.95312 0 0.41797-0.13672 0.74219-0.40625 0.96875-0.27344 0.21875-0.66406 0.32812-1.1719 0.32812h-0.67188v1.3906h-1.0312zm1.0312 0.75v1.1094h0.5625c0.19531 0 0.34766-0.046875 0.45312-0.14062 0.11328-0.10156 0.17188-0.24219 0.17188-0.42188 0-0.17578-0.058594-0.3125-0.17188-0.40625-0.10547-0.09375-0.25781-0.14062-0.45312-0.14062z"
         id="path62" />
    </symbol>
    <symbol
       id="l"
       overflow="visible">
      <path
         d="m0.45312-2.9844h0.96875v2.9375c0 0.39453-0.10156 0.69531-0.29688 0.90625-0.1875 0.21875-0.46484 0.32812-0.82812 0.32812h-0.48438v-0.64062h0.17188c0.17578 0 0.29688-0.042969 0.35938-0.125 0.070312-0.074219 0.10938-0.23047 0.10938-0.46875zm0-1.1719h0.96875v0.78125h-0.96875z"
         id="path65" />
    </symbol>
  </defs>
  <g
     id="g148">
    <path
       d="m321.77 216.97c-6.4805 7.1914-12.664 13.766-17.566 18.883l0.003906-28.27c0-1.6289-0.64844-3.1953-1.8047-4.3477-1.1523-1.1562-2.7188-1.8047-4.3477-1.8047h-170.61c-4.5039-0.003907-8.8164-1.793-12-4.9766s-4.9727-7.5-4.9805-12v-103.59c0.007812-4.5 1.7969-8.8164 4.9805-12 3.1836-3.1836 7.5-4.9727 12-4.9766h172.39c3.3984 0 6.1523-2.7578 6.1523-6.1523 0-3.3984-2.7539-6.1523-6.1523-6.1523h-172.39c-7.7656 0.007812-15.207 3.0938-20.699 8.582-5.4883 5.4922-8.5781 12.934-8.5859 20.699v103.59c0.007812 7.7617 3.0977 15.207 8.5859 20.699 5.4922 5.4883 12.934 8.5742 20.699 8.582h164.46v37.227c0 2.4844 1.4961 4.7266 3.7891 5.6797 2.2969 0.95312 4.9414 0.43359 6.7031-1.3164 0.13281-0.13281 13.551-13.504 28.52-30.121 2.2227-2.5312 2-6.3789-0.50391-8.6328-2.5039-2.2539-6.3555-2.0781-8.6406 0.39844z"
       id="path70"
       inkscape:export-filename="path70.png"
       inkscape:export-xdpi="42.830296"
       inkscape:export-ydpi="42.830296" />
    <path
       d="m539.45 419.48c-3.3828-1.5625-5.5352-4.9609-5.5117-8.6836v-22.164c0.042969-4.8672 2.4531-9.4062 6.4609-12.168 18.418-12.953 30.277-33.289 32.484-55.695 2.2109-22.406-5.4492-44.664-20.98-60.969-15.531-16.301-37.391-25.031-59.879-23.91-22.488 1.125-43.375 11.984-57.207 29.75-13.828 17.766-19.238 40.676-14.809 62.754 4.4258 22.074 18.25 41.129 37.863 52.188v31.656c0 2.2891-2.1055 5.7109-5.5078 7.2461-18.574 8.4062-34.34 21.98-45.402 39.109-11.066 17.125-16.965 37.074-16.992 57.461v9.9531c0 3.3984 2.7539 6.1523 6.1523 6.1523h199.57c1.6289 0 3.1953-0.64844 4.3477-1.8008 1.1562-1.1523 1.8047-2.7188 1.8047-4.3516v-9.9531c-0.027344-20.387-5.9258-40.34-16.992-57.465-11.066-17.125-26.828-30.703-45.402-39.109zm50.094 100.37h-187.27v-3.8008c0.023437-18.02 5.2383-35.652 15.02-50.789 9.7812-15.137 23.715-27.137 40.133-34.566 7.5078-3.3906 12.75-10.98 12.75-18.461v-26.082c8.2734 2.8828 16.969 4.3477 25.73 4.332 3.3984 0 6.1523-2.7539 6.1523-6.1523s-2.7539-6.1523-6.1523-6.1523c-17.766 0-34.762-7.2344-47.074-20.039-12.312-12.805-18.879-30.07-18.184-47.82 0.6875-16.41 7.5156-31.961 19.133-43.574 11.613-11.613 27.164-18.441 43.574-19.133 18.93-0.74219 37.246 6.7734 50.203 20.594 12.953 13.82 19.27 32.586 17.309 51.43-1.9609 18.84-12.004 35.902-27.531 46.758-7.2891 5.0664-11.656 13.363-11.703 22.242v22.164c-0.007812 4.1914 1.1875 8.2969 3.4492 11.824s5.4883 6.332 9.3008 8.0742c16.422 7.4297 30.352 19.43 40.133 34.566s14.996 32.77 15.023 50.789z"
       id="path72" />
    <path
       d="m248.39 419.48c-3.4023-1.5312-5.5078-4.957-5.5078-7.2461v-31.652c6.6055-3.7383 12.629-8.418 17.883-13.891 14.703-15.176 22.527-35.727 21.641-56.836-0.82031-19.504-8.9375-37.992-22.742-51.797-13.805-13.805-32.289-21.918-51.793-22.742-22.492-0.875-44.254 8.0586-59.648 24.48-15.391 16.422-22.895 38.719-20.566 61.105 2.3281 22.387 14.262 42.66 32.703 55.562 4.0039 2.7617 6.4141 7.3008 6.4609 12.168v22.164c0.023438 3.7227-2.1289 7.1211-5.5078 8.6836-18.578 8.4062-34.34 21.98-45.406 39.105-11.066 17.129-16.965 37.078-16.992 57.465v9.9531c0 3.3984 2.7539 6.1523 6.1523 6.1523h199.57c1.6328 0 3.1953-0.64844 4.3516-1.8008 1.1523-1.1523 1.8008-2.7188 1.8008-4.3516v-9.9531c-0.027344-20.387-5.9258-40.336-16.992-57.465-11.062-17.125-26.828-30.699-45.402-39.105zm50.094 100.37h-187.27v-3.8008c0.027344-18.02 5.2422-35.652 15.023-50.789 9.7812-15.137 23.711-27.137 40.133-34.566 3.8125-1.7422 7.0391-4.5469 9.3008-8.0742 2.2617-3.5273 3.457-7.6328 3.4492-11.824v-22.164c-0.046875-8.8789-4.4141-17.176-11.703-22.242-17.457-12.234-27.859-32.203-27.875-53.52 0-17.762 7.2344-34.758 20.039-47.07 12.801-12.312 30.066-18.879 47.816-18.188 16.41 0.69141 31.961 7.5195 43.574 19.133 11.613 11.613 18.445 27.164 19.133 43.574 0.69531 17.75-5.8711 35.016-18.184 47.82-12.312 12.805-29.309 20.039-47.074 20.039-3.3984 0-6.1523 2.7539-6.1523 6.1523s2.7539 6.1523 6.1523 6.1523c8.7617 0.015625 17.457-1.4492 25.73-4.332v26.086c0 7.4805 5.2422 15.074 12.75 18.461 16.418 7.4297 30.352 19.43 40.133 34.566s14.996 32.77 15.02 50.789z"
       id="path74" />
    <path
       d="m573.29 27.848h-221.29c-7.5703 0.007813-14.828 3.0195-20.184 8.3711-5.3516 5.3555-8.3633 12.613-8.3711 20.184v122.24c0.007812 7.5703 3.0195 14.828 8.3711 20.184 5.3555 5.3516 12.613 8.3633 20.184 8.3711h21.996l34.133 44.434c1.6055 2.0898 4.3633 2.9258 6.8594 2.0781 2.4961-0.84766 4.1719-3.1914 4.1719-5.8281v-40.688h154.12c7.5703-0.007812 14.828-3.0195 20.18-8.3711 5.3555-5.3555 8.3633-12.613 8.375-20.184v-122.24c-0.011719-7.5703-3.0195-14.828-8.375-20.184-5.3516-5.3516-12.609-8.3633-20.18-8.3711zm16.25 150.8c-0.007812 4.3086-1.7188 8.4414-4.7656 11.488-3.0469 3.043-7.1758 4.7578-11.484 4.7617h-160.28c-1.6328 0-3.1953 0.64844-4.3516 1.8047-1.1523 1.1523-1.8008 2.7188-1.8008 4.3477v28.73l-24.949-32.477c-1.1641-1.5156-2.9688-2.4062-4.8789-2.4062h-25.027c-4.3086-0.003906-8.4375-1.7188-11.484-4.7656s-4.7617-7.1758-4.7656-11.484v-122.24c0.003906-4.3086 1.7188-8.4414 4.7656-11.484 3.0469-3.0469 7.1758-4.7617 11.484-4.7656h221.29c4.3086 0.003906 8.4375 1.7188 11.484 4.7656 3.0469 3.043 4.7578 7.1758 4.7656 11.484z"
       id="path76" />
  </g>
</svg>
